<?xml version="1.0" encoding="UTF-8"?>
<svg id="Layer_1" data-name="Layer 1" xmlns="http://www.w3.org/2000/svg" viewBox="0 0 686.52 791.87">
  <defs>
    <style>
      .cls-1 {
        fill: #dc1414;
      }

      .cls-2 {
        fill: #edeeeb;
        opacity: .6;
      }
    </style>
  </defs>
  <rect class="cls-2" width="686.52" height="791.87"/>
  <g>
    <rect x="152.9" y="368.48" width="18.73" height="74.93"/>
    <polygon points="285.76 443.41 304.49 443.41 304.49 418.04 329.87 418.04 329.87 399.3 285.76 399.3 285.76 443.41"/>
    <polygon points="190.66 443.41 209.39 443.41 209.39 387.21 248.01 387.21 248.01 443.41 266.74 443.41 266.74 368.48 190.66 368.48 190.66 443.41"/>
    <rect x="285.76" y="368.48" width="52.23" height="18.73"/>
    <polygon class="cls-1" points="467.39 367.19 524.11 367.19 533.62 357.82 524.11 348.46 467.39 348.46 467.39 367.19"/>
    <polygon points="530.42 381.33 516.97 381.33 498.9 399.14 480.84 381.35 467.39 381.35 467.39 394.6 485.45 412.38 467.39 430.17 467.39 443.42 480.84 443.42 498.9 425.63 516.96 443.42 530.41 443.42 530.41 430.17 512.35 412.38 530.42 394.58 530.42 381.33"/>
    <path d="M385.15,368.48c-21.01,0-38.04,16.77-38.04,37.47s17.03,37.47,38.04,37.47,38.04-16.78,38.04-37.47-17.04-37.47-38.04-37.47M385.15,425.92c-11.2,0-20.27-8.94-20.27-19.97s9.08-19.97,20.27-19.97,20.27,8.94,20.27,19.97-9.08,19.97-20.27,19.97"/>
  </g>
</svg>