<?xml version="1.0" encoding="UTF-8"?>
<svg id="Layer_1" data-name="Layer 1" xmlns="http://www.w3.org/2000/svg" viewBox="0 0 686.52 686.52">
  <defs>
    <style>
      .cls-1 {
        fill: #e1e2dc;
      }

      .cls-2 {
        fill: #666;
      }

      .cls-3 {
        fill: #00922b;
      }
    </style>
  </defs>
  <rect class="cls-1" width="686.52" height="686.52"/>
  <g>
    <path d="M233.87,292.35l-.19.43-2.49,5.89h-2.27l7.78-17.6,7.78,17.6h-2.27l-2.44-5.75-.19-.48-2.87-6.75-2.82,6.65ZM233.04,291.72h7.42l.72,1.92h-8.86l.72-1.92Z"/>
    <polygon points="261.47 298.67 259.44 298.67 261.47 281.07 268.18 293.21 274.88 281.07 276.91 298.67 274.88 298.67 273.63 287.34 268.18 297.11 262.72 287.34 261.47 298.67"/>
    <path d="M296.83,292.35l-.19.43-2.49,5.89h-2.27l7.78-17.6,7.78,17.6h-2.28l-2.44-5.75-.19-.48-2.87-6.75-2.82,6.65ZM295.99,291.72h7.42l.72,1.92h-8.86l.72-1.92Z"/>
    <polygon points="322.28 281.91 334.01 281.91 325.2 296.75 333.53 296.75 333.53 298.67 321.8 298.67 330.61 283.82 322.28 283.82 322.28 281.91"/>
    <rect x="350.28" y="281.91" width="2.04" height="16.76"/>
    <polygon points="384.76 281.91 384.76 299.5 372.07 286.19 372.07 298.67 370.03 298.67 370.03 281.07 382.72 294.38 382.72 281.91 384.76 281.91"/>
    <path d="M410.25,290.17h7.78c0,1.16-.18,2.27-.53,3.32-.35,1.05-.87,1.98-1.56,2.79-.69.81-1.53,1.46-2.52,1.93-1,.47-2.14.71-3.41.71s-2.34-.21-3.37-.63-1.94-1.02-2.71-1.8c-.77-.77-1.36-1.69-1.78-2.74-.42-1.05-.63-2.2-.63-3.45s.21-2.39.63-3.45c.42-1.05,1.02-1.97,1.78-2.74.77-.77,1.67-1.37,2.71-1.8,1.04-.42,2.16-.63,3.37-.63,1.04,0,1.99.13,2.86.41.87.27,1.65.67,2.35,1.2.69.53,1.28,1.18,1.76,1.96l-1.44,1.32c-.53-.89-1.26-1.59-2.2-2.09-.94-.5-2.05-.75-3.33-.75-.88,0-1.7.16-2.48.48-.77.32-1.45.77-2.02,1.35-.57.58-1.02,1.28-1.35,2.08-.33.81-.49,1.7-.49,2.67s.16,1.86.49,2.67c.33.81.78,1.5,1.35,2.08.57.58,1.25,1.03,2.02,1.35.77.32,1.6.48,2.48.48.83,0,1.58-.12,2.24-.37.66-.25,1.23-.59,1.71-1.04.48-.45.87-.96,1.18-1.53.31-.57.54-1.19.68-1.84h-5.58v-1.92Z"/>
    <path class="cls-3" d="M180.02,282.62c1.12-4.14,2.07-8.28,2.55-10.51-4.14.96-21.34,18.95-61.15,81.85q-4.3,6.69-5.1,7.01c-1.12.64-2.39.48-3.34-.32-3.34-2.55-1.91-13.69,7.49-56.53,2.55-11.78,4.94-22.93,4.94-25.48,0-2.87,4.62-2.87,4.62,0,0,3.03-1.91,11.47-5.1,26.44-3.18,14.49-8.6,39.33-9.08,48.89.48-.64,1.12-1.59,1.59-2.55,37.26-58.6,60.2-88.22,68.79-83.13q1.75,1.12-1.75,15.45c-4.78,18.79-23.73,89.97-15.93,97.14,3.5,3.5,18.79-9.87,31.05-24.36,2.07-2.55,5.26.16,3.5,2.55-5.89,7.01-28.35,32.96-38.06,25.16-8.92-8.28,6.37-67.04,14.97-101.6"/>
    <path class="cls-3" d="M212.75,339.27c6.69-3.5,11.15,1.27,10.51,7.33-.32,3.03-4.78,2.39-4.46-.48.32-3.18-1.12-4.3-3.82-2.71-6.37,3.34-12.58,17.84-10.51,22.29.16.32.64,1.27,3.66,0,3.5-1.43,6.37-6.53,8.28-9.87,1.43-2.39,5.89-7.48,7.17-2.39,1.75,6.53,3.82,10.03,6.69,10.83,3.5.95,10.51-.8,24.52-14.33,2.23-2.23,5.41,1.27,3.18,3.19-12.9,12.58-22.14,17.52-28.82,15.61-4.78-1.43-7.33-5.89-8.92-10.19-2.23,3.82-5.57,9.55-10.35,11.47-3.98,1.43-7.48,1.27-9.55-2.39-3.18-7.01,4.14-23.89,12.42-28.35"/>
    <path class="cls-3" d="M377.56,353.13c-14.33,13.7-21.34,17.99-26.44,16.88-10.35-2.23-10.83-20.22-20.54-21.34-6.85-.8-15.13,7.48-22.45,14.65-4.78,4.78-14.81,15.76-19.75,10.19-1.75-1.91-1.27-5.57-.8-9.55.32-2.71.96-7.17-.16-8.12-.32-.32-1.27-.32-1.75-.16-6.21,1.11-15.13,7.17-21.18,10.99-3.82,2.39-7.8,6.05-10.99,2.87-1.91-2.39-.64-6.69.8-11.62.32-1.27.96-2.87,1.11-4.14-.48-.16-.95-.48-1.27-.96-.64-1.11-.32-2.07.8-3.03,1.75-1.59,3.34-.8,4.14-.16,1.91,1.59.96,4.78-.32,9.56-.64,1.91-1.59,4.94-1.59,6.69.96-.64,3.03-1.91,4.78-3.18,6.21-4.14,15.93-10.19,22.93-11.47,2.39-.48,4.3,0,5.73,1.27,2.71,2.55,2.07,7.33,1.59,12.1-.32,1.91-.64,5.26-.16,6.05,2.23-.16,7.96-5.73,12.9-10.51,7.96-7.96,17.2-17.04,26.12-16.08,12.26,1.27,13.38,20.38,20.7,21.5,3.34.64,9.71-3.34,22.61-15.61,2.23-2.23,5.42,1.27,3.19,3.18"/>
    <path class="cls-3" d="M383.61,339.27c6.69-3.5,11.15,1.27,10.51,7.33-.32,3.03-4.78,2.39-4.46-.48.32-3.18-1.12-4.3-3.82-2.71-6.37,3.34-12.58,17.84-10.51,22.29.16.32.64,1.27,3.66,0,3.5-1.43,6.37-6.53,8.28-9.87,1.43-2.39,5.89-7.48,7.17-2.39,1.75,6.53,3.82,10.03,6.69,10.83,3.5.95,10.51-.8,24.52-14.33,2.23-2.23,5.41,1.27,3.18,3.19-12.9,12.58-22.14,17.52-28.82,15.61-4.78-1.43-7.33-5.89-8.92-10.19-2.23,3.82-5.57,9.55-10.35,11.47-3.98,1.43-7.49,1.27-9.56-2.39-3.19-7.01,4.14-23.89,12.42-28.35"/>
    <path class="cls-3" d="M597.32,341.44c-19.75-2.87-38.54,4.46-55.1,10.83-14.97,5.73-27.87,10.67-36.63,6.37-.51-.27-.97-.55-1.41-.83,12.95-11.65,15.02-25.33,7.78-27.52-9.33-2.4-20.33,15.84-14.13,26.89-.13.1-.26.19-.4.29-1.69,1.22-3.36,2.33-5.03,3.32-1.66,1-3.48,1.94-5.44,2.82-1.97.89-3.85,1.58-5.65,2.08-1.8.5-3.64.75-5.53.75s-3.63-.3-5.23-.91c-5.59-2.16-9.08-8.14-10.47-17.94,2.77-6.98,4.85-12.49,6.23-16.53.17-.39.35-.64.54-.75.19-.11.54-.17,1.04-.17,10.63-.83,20.27-1.25,28.91-1.25.61,0,1.12-.22,1.54-.66.41-.44.62-.96.62-1.54s-.21-1.09-.62-1.54c-.42-.44-.93-.66-1.54-.66-5.59,0-14.73.39-27.42,1.16-.17,0-.3-.04-.42-.12-.11-.08-.21-.25-.29-.5-.08-.25-.04-.59.12-1.04,2.21-6.2,3.82-11.75,4.82-16.66,1-4.9,1.08-8.18.25-9.84-1.27-2.6-3.02-3.71-5.23-3.32-1.44.28-2.84,1.38-4.2,3.32-1.36,1.94-2.56,4.4-3.61,7.39-1.05,2.99-1.98,6.12-2.78,9.39-.8,3.27-1.45,6.62-1.95,10.05-.22,1.44-.83,2.22-1.83,2.33-2.44.17-13.88,1.07-14.71,1.12-.83.05-1.27.08-1.33.08-.61,0-1.11.22-1.49.66-.39.44-.58.97-.58,1.58s.22,1.12.66,1.54c.44.41.97.6,1.58.54h.17c.06,0,.47-.03,1.25-.08.78-.06,11.39-.87,13.71-1.04.44-.05.83.05,1.16.33.33.28.52.64.58,1.08-.61,9.91.28,18.11,2.66,24.59,2.38,6.48,6.06,10.66,11.05,12.54,2.21.83,4.46,1.25,6.73,1.25,3.1,0,6.44-.68,10.01-2.04,3.57-1.36,6.7-2.87,9.39-4.53,1.81-1.12,3.64-2.36,5.47-3.71.85.75,1.82,1.45,2.95,2.04,11.15,5.89,25.64-.48,40.29-6.05,16.08-6.21,34.24-13.22,52.87-10.67,2.71.32,3.66-4.14.64-4.46M460.5,324.24c.83-5.93,2.05-11.26,3.66-15.99,1.61-4.74,3.04-7.8,4.32-9.18.22-.22.5-.29.83-.21.33.08.55.29.66.62,1,2.05-1.03,10.44-6.06,25.17-.17.89-.66,1.36-1.5,1.41-.44.06-.89.08-1.33.08-.61,0-.8-.64-.58-1.91M459.42,337.2c-.22,0-.36-.48-.42-1.45-.05-.97-.01-1.99.12-3.07.14-1.08.35-1.76.62-2.04.66-.5,1.38-.55,2.16-.17.33.39.12,1.61-.62,3.65-.75,2.05-1.37,3.07-1.87,3.07M500.33,352.74c-1.53-6.46,5.41-19.3,10.51-17.99,3.52.9-2.14,13.89-9.75,19.96-.34-.6-.59-1.25-.76-1.97"/>
    <path class="cls-3" d="M457.91,340.53c-4.18,11.09-13.56,18.88-24.48,22.88-3.06,1.12-6.17,2.12-9.16,3.41-1.95.85-4.33,2-5.04,4.19-.66,2.01.43,4.18,2.1,5.33,1.39.95,3.14,1.25,4.77,1.46,3.78.46,7.99.06,11.54-1.36,3.33-1.34,6.53-4.25,5.1-8.2-1.24-3.41-4.43-6.03-6.97-8.49-3.06-2.96-6.11-5.8-8.01-9.46-2.41-4.11-.39-7.22.02-7.65.74-.76,1.86-.52,2.36-.03.5.49.67,2.65-4.03,7.11-.69.65-1.41,1.26-2.08,1.93-2.04,2.01,1.1,5.15,3.14,3.14,3.2-3.16,8.15-6.77,7.6-11.88-.28-2.66-2.29-4.92-4.97-5.39-3.11-.54-5.42,1.44-6.6,4.16-3.9,8.94,4.66,16.58,10.42,22.18,1.34,1.31,5.87,4.81,5.12,6.63-.43,1.03-3.91,2.7-9.17,3.14-.93.08-5.74-.03-6.21-1.11-.47-1.08,6.32-3.07,8.93-4,6.18-2.2,11.91-4.8,17.04-8.95,4.57-3.7,8.41-8.41,11.03-13.67.68-1.36,1.27-2.76,1.81-4.19.42-1.12-.47-2.44-1.55-2.73-1.25-.34-2.31.42-2.73,1.55"/>
    <path class="cls-2" d="M256.86,418.36h-1.44v-8.71h1.44v8.71ZM256.32,409.65h3.9v1.32h-3.9v-1.32ZM256.32,413.15h3.77v1.28h-3.77v-1.28Z"/>
    <path class="cls-2" d="M268.2,412.21c.22-.55.54-1.03.95-1.43.41-.4.89-.71,1.44-.94.55-.22,1.15-.34,1.79-.34s1.25.11,1.8.34c.55.22,1.03.54,1.44.94.41.4.73.88.95,1.43s.34,1.15.34,1.8-.11,1.25-.34,1.8-.54,1.03-.95,1.44-.89.73-1.44.96c-.55.23-1.16.34-1.81.34s-1.26-.11-1.8-.34c-.55-.23-1.02-.55-1.43-.96-.41-.41-.72-.89-.95-1.44-.22-.55-.34-1.15-.34-1.8s.11-1.25.34-1.8M269.64,415.25c.15.38.35.71.62.98.27.28.58.49.94.65.36.15.76.23,1.19.23s.83-.08,1.19-.23c.36-.15.67-.37.94-.65.27-.28.47-.61.62-.98.14-.38.22-.79.22-1.24s-.07-.86-.21-1.24c-.14-.38-.34-.71-.61-.98-.27-.28-.58-.49-.94-.65-.36-.15-.76-.23-1.19-.23s-.84.08-1.2.23c-.36.15-.67.37-.94.65-.27.28-.47.61-.62.98-.15.38-.22.79-.22,1.24s.07.86.22,1.24"/>
    <path class="cls-2" d="M286.22,409.65v5.79c0,.36.06.67.19.94.13.27.32.48.57.63s.57.22.94.22.69-.07.94-.22c.25-.15.44-.36.57-.63.13-.27.19-.58.19-.94v-5.79h1.47v5.85c0,.48-.08.91-.23,1.29-.15.38-.37.71-.65.97-.28.27-.62.47-1.01.61-.39.14-.82.21-1.28.21s-.89-.07-1.28-.21c-.39-.14-.73-.34-1.01-.61-.28-.26-.5-.59-.65-.97-.15-.38-.23-.81-.23-1.29v-5.85h1.47Z"/>
    <polygon class="cls-2" points="307.25 409.65 307.25 418.8 300.89 412.52 300.89 418.36 299.45 418.36 299.45 409.22 305.81 415.5 305.81 409.65 307.25 409.65"/>
    <path class="cls-2" d="M317.16,418.36h-1.51v-8.71h1.51v8.71ZM316.56,418.36v-1.38h1.87c.43,0,.83-.06,1.19-.19.37-.12.68-.31.96-.56.27-.25.49-.56.63-.93.15-.37.22-.8.22-1.29s-.07-.92-.22-1.29c-.15-.37-.36-.68-.63-.93-.27-.25-.59-.44-.96-.56-.37-.12-.76-.19-1.19-.19h-1.87v-1.38h1.9c.66,0,1.27.1,1.82.31.55.21,1.02.5,1.42.88.4.38.7.84.92,1.37.22.54.32,1.13.32,1.79s-.11,1.25-.32,1.79c-.22.54-.52.99-.92,1.38-.4.38-.87.68-1.42.88s-1.15.31-1.82.31h-1.9Z"/>
    <path class="cls-2" d="M332.43,415.32l-.02.32-1.21,2.72h-1.65l4.26-9.2,4.26,9.2h-1.65l-1.18-2.65-.04-.36-1.38-3.24-1.37,3.2ZM331.8,414.88h4.03l.29,1.24h-4.6l.29-1.24Z"/>
    <polygon class="cls-2" points="343.79 409.65 349.86 409.65 349.86 411.01 347.56 411.01 347.56 418.36 346.08 418.36 346.08 411.01 343.79 411.01 343.79 409.65"/>
    <rect class="cls-2" x="357.39" y="409.65" width="1.48" height="8.71"/>
    <path class="cls-2" d="M367.12,412.21c.22-.55.54-1.03.95-1.43.41-.4.89-.71,1.44-.94.55-.22,1.15-.34,1.79-.34s1.25.11,1.8.34c.55.22,1.03.54,1.44.94.41.4.73.88.95,1.43s.34,1.15.34,1.8-.11,1.25-.34,1.8-.54,1.03-.95,1.44-.89.73-1.44.96c-.55.23-1.16.34-1.81.34s-1.26-.11-1.8-.34c-.55-.23-1.02-.55-1.43-.96-.41-.41-.72-.89-.95-1.44-.22-.55-.34-1.15-.34-1.8s.11-1.25.34-1.8M368.56,415.25c.15.38.35.71.62.98.27.28.58.49.94.65.36.15.76.23,1.19.23s.83-.08,1.19-.23c.36-.15.67-.37.94-.65.27-.28.47-.61.62-.98.14-.38.22-.79.22-1.24s-.07-.86-.21-1.24c-.14-.38-.34-.71-.61-.98-.27-.28-.58-.49-.94-.65-.36-.15-.76-.23-1.19-.23s-.84.08-1.2.23c-.36.15-.67.37-.94.65-.27.28-.47.61-.62.98-.15.38-.22.79-.22,1.24s.07.86.22,1.24"/>
    <polygon class="cls-2" points="391.53 409.65 391.53 418.8 385.18 412.52 385.18 418.36 383.73 418.36 383.73 409.22 390.09 415.5 390.09 409.65 391.53 409.65"/>
  </g>
</svg>