<?xml version="1.0" encoding="UTF-8"?>
<svg id="Layer_1" data-name="Layer 1" xmlns="http://www.w3.org/2000/svg" viewBox="0 0 686.52 686.52">
  <defs>
    <style>
      .cls-1 {
        fill: #961b1e;
      }

      .cls-2 {
        fill: #c2ab7e;
      }
    </style>
  </defs>
  <rect class="cls-1" width="686.52" height="686.52"/>
  <g>
    <g>
      <path class="cls-2" d="M139.13,395.44c3.99-1.19,5.32-4.25,5.32-15.16v-59.29c0-10.9-1.33-13.96-5.32-15.16v-1.73h21.54v1.73c-4.12,1.2-5.32,4.26-5.32,15.16v33.77l34.83-35.63c8.38-8.64,9.57-13.03,4.39-13.83v-1.2h18.48v1.73c-4.25,1.2-9.84,2.53-17.41,10.37l-28.32,28.98,3.06-.13c19.81-1.33,22.87,5.85,31.91,28.58,6.78,17.02,9.71,21.67,13.96,21.67.8,0,1.46,0,2.26-.13v1.73c-2.26.66-5.19.93-7.98.93-9.7,0-12.1-5.72-18.48-21.27-8.77-21.54-10.77-29.65-24.2-29.25h-2.66l-9.84,10.1v22.87c0,10.9,1.2,13.96,5.32,15.16v1.73h-21.54v-1.73Z"/>
      <path class="cls-2" d="M269.15,393.18v-23.93c-4.12,16.35-15.29,29.25-28.45,29.25-9.84,0-18.61-5.98-18.61-17.42,0-13.83,13.96-19.01,29.78-23.4l17.28-4.65c-.66-12.9-7.31-18.88-18.61-18.88-7.98,0-15.69,3.72-22.34,11.83l-1.19-1.06c7.58-9.44,17.28-15.16,28.85-15.16,16.09,0,23.53,8.91,23.53,23.93v26.59c0,10.9,1.19,13.96,5.32,15.16v1.73h-11.57c-2.66,0-3.99-1.46-3.99-3.99ZM245.62,390.65c14.23,0,23.4-17.95,23.53-31.91v-3.99l-16.75,4.52c-9.84,2.79-20.47,7.18-20.34,18.08,0,8.64,5.98,13.29,13.56,13.29Z"/>
      <path class="cls-2" d="M292.15,395.44c4.12-1.19,5.32-4.25,5.32-15.16v-30.58c0-9.31-1.6-10.64-5.32-12.23v-1.46l14.63-6.38,1.06.93v49.72c0,10.9,1.33,13.96,5.32,15.16v1.73h-21.01v-1.73ZM294.54,314.21c0-4.25,3.19-7.44,7.31-7.44s7.31,3.19,7.31,7.44c0,3.99-3.19,7.31-7.31,7.31s-7.31-3.32-7.31-7.31Z"/>
      <path class="cls-2" d="M322.86,395.44c3.99-1.19,5.32-4.25,5.32-15.16v-70.46c0-9.31-1.73-10.64-5.32-12.23v-1.46l14.49-6.38,1.2.93v89.61c0,10.9,1.2,13.96,5.32,15.16v1.73h-21.01v-1.73Z"/>
      <path class="cls-2" d="M401.03,393.18v-23.93c-4.12,16.35-15.29,29.25-28.45,29.25-9.84,0-18.61-5.98-18.61-17.42,0-13.83,13.96-19.01,29.78-23.4l17.28-4.65c-.66-12.9-7.31-18.88-18.61-18.88-7.98,0-15.69,3.72-22.34,11.83l-1.19-1.06c7.58-9.44,17.28-15.16,28.85-15.16,16.09,0,23.53,8.91,23.53,23.93v26.59c0,10.9,1.19,13.96,5.32,15.16v1.73h-11.57c-2.66,0-3.99-1.46-3.99-3.99ZM377.5,390.65c14.23,0,23.4-17.95,23.53-31.91v-3.99l-16.75,4.52c-9.84,2.79-20.47,7.18-20.34,18.08,0,8.64,5.98,13.29,13.56,13.29Z"/>
      <path class="cls-2" d="M426.81,392.25l-1.2-16.09,1.2-.27c5.58,12.63,15.02,20.21,27.12,20.34,8.24,0,14.36-4.92,14.36-12.36,0-9.57-9.31-12.63-19.54-15.95-12.63-3.99-21.67-7.44-21.67-19.54,0-10.5,8.78-18.61,24.2-18.61,8.64,0,16.49,1.86,20.61,3.59l.53,13.56-1.33.27c-4.26-9.57-12.76-15.69-22.2-15.69s-14.89,4.39-14.89,11.17c0,8.38,8.51,11.83,19.01,15.29,10.1,3.32,22.33,6.38,22.33,19.68,0,11.17-8.38,20.61-24.33,20.74-10.64,0-19.81-3.19-24.2-6.12Z"/>
      <path class="cls-2" d="M531.84,393.18v-23.93c-4.12,16.35-15.29,29.25-28.45,29.25-9.84,0-18.61-5.98-18.61-17.42,0-13.83,13.96-19.01,29.78-23.4l17.28-4.65c-.66-12.9-7.31-18.88-18.61-18.88-7.98,0-15.69,3.72-22.34,11.83l-1.19-1.06c7.58-9.44,17.28-15.16,28.85-15.16,16.09,0,23.53,8.91,23.53,23.93v26.59c0,10.9,1.19,13.96,5.32,15.16v1.73h-11.57c-2.66,0-3.99-1.46-3.99-3.99ZM508.31,390.65c14.23,0,23.4-17.95,23.53-31.91v-3.99l-16.75,4.52c-9.84,2.79-20.47,7.18-20.34,18.08,0,8.64,5.98,13.29,13.56,13.29Z"/>
      <path class="cls-2" d="M370.4,319.09l2.39-2.93c.8-1.2,1.86-1.46,2.93-1.46h31.39l.27.4-2.39,2.93c-.8,1.33-1.86,1.6-2.93,1.6h-31.39l-.27-.53Z"/>
    </g>
    <g>
      <path class="cls-2" d="M325.23,244.55h-.95l-11.66,27.88-.14.34h2.74l2.45-5.87,1.25-3.13h9.89l1.34,3.5,2.31,5.5h5.03l-3.31-7.54-8.94-20.68ZM328.1,261.95h-8.45l4.31-10.8,4.14,10.8Z"/>
      <path class="cls-2" d="M401.92,265.77l-.11.24c-.13.28-.24.44-.37.65l-.14.21c-.93,1.45-2.13,2.51-3.55,3.15-1.44.64-3.08.97-4.88.97-2-.05-3.78-.59-5.28-1.59-1.48-1.04-2.66-2.49-3.5-4.32-.82-1.84-1.24-4.02-1.24-6.49s.43-4.68,1.27-6.49c.84-1.83,2.04-3.25,3.57-4.24,1.53-1.01,3.38-1.52,5.51-1.52s4.05.56,5.66,1.67c.55.37,1.06.82,1.5,1.33l.18.21,2.06-2.37-.24-.15c-1.11-.7-2.46-1.28-4.02-1.74-1.56-.49-3.35-.73-5.29-.73-2.98,0-5.59.59-7.77,1.74-2.16,1.16-3.88,2.82-5.09,4.93-1.18,2.09-1.79,4.57-1.79,7.4s.61,5.4,1.82,7.51c1.21,2.09,2.92,3.73,5.09,4.89,2.16,1.12,4.7,1.71,7.54,1.74,1.82,0,3.45-.25,4.84-.74,1.39-.49,2.6-1.16,3.58-1.99,1.01-.85,1.85-1.82,2.49-2.88l.13-.21-1.97-1.2Z"/>
      <polygon class="cls-2" points="282.64 246.35 292.66 246.35 292.66 272.78 296.83 272.78 296.83 246.35 306.86 246.35 306.86 244.56 282.64 244.55 282.64 246.35"/>
      <path class="cls-2" d="M360.23,260.27c.13-.03.25-.07.38-.1,1.08-.35,2.06-.89,2.89-1.59.84-.71,1.52-1.59,2.01-2.62.52-1.06.77-2.25.74-3.51,0-1.59-.36-3-1.06-4.16-.68-1.2-1.7-2.13-3.03-2.75-1.3-.65-2.93-.98-4.86-.98h-11.14s.55.43.55.43c1.15.9,1.86,1.68,2.11,2.96v24.83h4.17v-26.39h3.68c1.58,0,2.81.52,3.66,1.54.88,1.03,1.34,2.42,1.37,4.14.03.39.01.8-.04,1.22-.05.41-.12.77-.19,1.07-.3,1.04-.76,1.87-1.37,2.48-.58.6-1.21,1.04-1.89,1.29-.66.26-1.32.41-1.95.46-.64.05-1.15.07-1.53.04l-.87-.12v.9h.23c.47.04.74.28,1.54,1.36l4.29,5.84,4.41,6.16h5.57l-5.59-7.01-4.06-5.5Z"/>
    </g>
    <g>
      <path class="cls-2" d="M222.39,426.65c.9,0,1.67.16,2.32.47.65.32,1.16.76,1.52,1.34.37.58.55,1.28.55,2.1s-.18,1.5-.55,2.09c-.37.59-.87,1.04-1.52,1.35-.65.31-1.42.47-2.32.47h-2.78v4.65h-2.02v-12.48h4.8ZM222.07,432.74c.9,0,1.55-.19,1.98-.56.42-.37.63-.91.63-1.62s-.21-1.26-.63-1.64c-.42-.37-1.08-.56-1.98-.56h-2.46v4.37h2.46Z"/>
      <path class="cls-2" d="M239.92,439.13h-2.14l-1.19-3.27h-5.24l-1.19,3.27h-2.08l4.71-12.48h2.42l4.71,12.48ZM231.92,434.21h4.1l-2.04-5.83-2.06,5.83Z"/>
      <path class="cls-2" d="M250.9,426.65v1.74h-4.28v10.74h-2.02v-10.74h-4.28v-1.74h10.57Z"/>
      <path class="cls-2" d="M254.45,439.13v-12.48h9.04v1.74h-7.02v3.59h5.49v1.7h-5.49v3.71h7.28v1.74h-9.31Z"/>
      <path class="cls-2" d="M269.64,437.39h6.89v1.74h-8.91v-12.48h2.02v10.74Z"/>
      <path class="cls-2" d="M291.96,426.65c1.34,0,2.4.33,3.19,1s1.18,1.57,1.18,2.71-.39,2.08-1.18,2.71c-.79.64-1.85.96-3.19.96l-.19.11h-2.89v4.99h-2.01v-12.48h5.09ZM291.81,432.45c.82,0,1.43-.17,1.83-.5.4-.33.6-.85.6-1.54s-.2-1.19-.6-1.53c-.4-.34-1.01-.51-1.83-.51h-2.93v4.09h2.93ZM293,432.87l4.07,6.26h-2.33l-3.48-5.47,1.74-.79Z"/>
      <path class="cls-2" d="M305.79,426.46c1.21,0,2.26.26,3.14.78.88.52,1.56,1.26,2.04,2.21.48.96.72,2.11.72,3.44s-.24,2.48-.72,3.44c-.48.96-1.16,1.7-2.04,2.21s-1.93.78-3.14.78-2.24-.26-3.12-.78-1.56-1.25-2.04-2.21-.72-2.11-.72-3.44.24-2.48.72-3.44c.48-.96,1.16-1.7,2.04-2.21.88-.52,1.92-.78,3.12-.78ZM305.79,428.22c-.78,0-1.45.18-2.01.55s-.99.9-1.3,1.59c-.3.69-.45,1.54-.45,2.53s.15,1.83.45,2.53c.3.7.74,1.23,1.3,1.6s1.23.55,2.01.55,1.47-.18,2.03-.55.99-.9,1.3-1.6c.3-.7.45-1.54.45-2.53s-.15-1.84-.45-2.53c-.3-.69-.73-1.22-1.3-1.59s-1.24-.55-2.03-.55Z"/>
      <path class="cls-2" d="M325.77,439.13h-2.14l-1.19-3.27h-5.24l-1.19,3.27h-2.08l4.71-12.48h2.42l4.71,12.48ZM317.77,434.21h4.1l-2.04-5.83-2.06,5.83Z"/>
      <path class="cls-2" d="M333.52,426.65c1.95,0,3.48.54,4.57,1.62,1.09,1.08,1.64,2.62,1.64,4.62s-.55,3.55-1.64,4.63c-1.09,1.08-2.61,1.62-4.57,1.62h-4.41v-12.48h4.41ZM333.52,437.41c1.32,0,2.34-.39,3.04-1.18.7-.79,1.05-1.9,1.05-3.34s-.35-2.55-1.05-3.34c-.7-.79-1.71-1.18-3.04-1.18h-2.38v9.04h2.38Z"/>
      <path class="cls-2" d="M344,436.58c.35,0,.65.09.88.26.23.17.41.4.54.7s.19.63.19,1.01c0,.47-.09.92-.26,1.35-.18.44-.43.83-.77,1.19-.33.36-.73.65-1.2.88l-.95-.81c.34-.13.64-.29.91-.49s.49-.43.67-.68c.18-.25.31-.51.39-.78l-.08-.04c-.06.04-.14.07-.22.09-.08.03-.2.04-.35.04-.18,0-.36-.05-.54-.14s-.34-.24-.46-.43c-.13-.19-.19-.44-.19-.74,0-.28.07-.52.2-.74.13-.22.31-.38.52-.5s.45-.18.72-.18Z"/>
      <path class="cls-2" d="M367.1,426.65v12.48h-2.4l-4.82-7.87-1.21-2.21h-.02l.08,2.02v8.06h-1.85v-12.48h2.38l4.8,7.85,1.23,2.25h.02l-.08-2.04v-8.06h1.87Z"/>
      <path class="cls-2" d="M371.92,439.13v-12.48h9.04v1.74h-7.02v3.59h5.49v1.7h-5.49v3.71h7.28v1.74h-9.31Z"/>
      <path class="cls-2" d="M387.43,439.13l-3.67-12.48h2.14l2.8,10.73,2.72-10.73h2.08l2.74,10.74,2.78-10.74h2.06l-3.65,12.48h-2.38l-1.99-7.49-.62-2.87h-.02l-.62,2.87-1.97,7.49h-2.4Z"/>
      <path class="cls-2" d="M415.88,426.65c1.95,0,3.48.54,4.57,1.62,1.09,1.08,1.64,2.62,1.64,4.62s-.55,3.55-1.64,4.63c-1.09,1.08-2.61,1.62-4.57,1.62h-4.41v-12.48h4.41ZM415.88,437.41c1.32,0,2.34-.39,3.04-1.18s1.05-1.9,1.05-3.34-.35-2.55-1.05-3.34c-.7-.79-1.71-1.18-3.04-1.18h-2.38v9.04h2.38Z"/>
      <path class="cls-2" d="M426.23,439.13v-12.48h9.04v1.74h-7.02v3.59h5.49v1.7h-5.49v3.71h7.28v1.74h-9.31Z"/>
      <path class="cls-2" d="M441.42,437.39h6.89v1.74h-8.91v-12.48h2.02v10.74Z"/>
      <path class="cls-2" d="M453.88,426.65v12.48h-2.02v-12.48h2.02ZM461.07,431.94v1.74h-8.19v-1.74h8.19ZM462.09,426.65v12.48h-2.04v-12.48h2.04Z"/>
      <path class="cls-2" d="M468.94,426.65v12.48h-2.02v-12.48h2.02Z"/>
    </g>
  </g>
</svg>