<?xml version="1.0" encoding="UTF-8"?>
<svg id="Layer_1" data-name="Layer 1" xmlns="http://www.w3.org/2000/svg" viewBox="0 0 686.52 686.52">
  <defs>
    <style>
      .cls-1 {
        fill: #fff;
      }

      .cls-2 {
        fill: #8ea6a3;
      }
    </style>
  </defs>
  <rect class="cls-2" width="686.52" height="686.52"/>
  <path class="cls-1" d="M276.6,192.17h107.63v-11.64h-116.1l-34.57,106.87,11.08,3.58,31.96-98.81ZM252.53,347.88l5.6-12.44c.91-2.03,1.36-3.66,1.36-4.89,0-.8-.26-1.41-.79-1.85-.52-.44-1.19-.65-1.98-.65s-1.58.15-2.47.46c-.89.31-1.84.86-2.85,1.66-.54.44-1.11.95-1.71,1.55s-1.21,1.24-1.85,1.93c-.63.69-1.26,1.41-1.87,2.17-.62.76-1.2,1.5-1.74,2.23l-.27-.22c.33-.65.65-1.28.98-1.9.33-.62.63-1.28.92-2.01l7.72-18.09-.27-.65h-7.17l-.54,1.52,2.06.32c.87.15,1.11.69.71,1.63l-14.13,33.96h3.58l3.64-7.39c.69-1.41,1.54-2.81,2.55-4.18,1.01-1.38,2.02-2.64,3.01-3.78,1-1.14,1.89-2.1,2.69-2.88.8-.78,1.36-1.31,1.68-1.6.98-.87,1.87-1.3,2.66-1.3.58,0,.87.33.87.98,0,.32-.05.69-.16,1.09-.11.4-.25.8-.43,1.2l-6.3,14.4c-.18.43-.31.82-.38,1.14-.07.33-.11.6-.11.81,0,.51.17.92.52,1.22.35.31.81.46,1.39.46.91,0,1.86-.24,2.85-.71,1-.47,1.95-1.05,2.85-1.74.91-.69,1.72-1.4,2.44-2.15.72-.74,1.29-1.39,1.68-1.93l-1.25-.92c-.22.29-.57.66-1.06,1.11-.49.45-1.01.9-1.58,1.33-.56.44-1.11.81-1.63,1.11-.53.31-.92.46-1.17.46-.33,0-.46-.15-.41-.46.06-.31.17-.64.35-1.01ZM334.99,283.26c5.88,3.83,11.2,8.3,15.91,13.27l8.63-7.83c-5.37-5.7-11.45-10.81-18.18-15.2-22.21-14.47-48.72-19.42-74.65-13.95l2.41,11.39c22.89-4.83,46.29-.46,65.89,12.31ZM272.24,498.94c-.38-.45-.85-.8-1.4-1.05-.55-.25-1.16-.38-1.81-.38-1.2,0-2.2.4-3,1.21-.8.81-1.2,1.82-1.2,3.04,0,.79.18,1.52.55,2.16.37.65.87,1.16,1.51,1.53.64.37,1.36.55,2.15.55.65,0,1.25-.12,1.8-.37.55-.25,1.01-.6,1.39-1.04l.14,1.24h1.06v-8.14h-1.02l-.16,1.25ZM271.26,503.9c-.57.57-1.28.86-2.14.86s-1.57-.29-2.14-.86c-.57-.57-.85-1.29-.85-2.15s.28-1.58.85-2.15c.57-.57,1.28-.86,2.14-.86s1.57.29,2.14.86c.57.57.85,1.29.85,2.15s-.28,1.58-.85,2.15ZM268.02,343.42c2.28-.54,4.39-1.22,6.33-2.04,1.94-.82,3.61-1.74,5-2.77,1.39-1.03,2.48-2.16,3.26-3.4s1.17-2.54,1.17-3.91c0-.83-.36-1.58-1.09-2.25-.73-.67-1.9-1.01-3.53-1.01-1.49,0-2.91.32-4.27.95-1.36.63-2.63,1.49-3.83,2.55-1.2,1.07-2.28,2.28-3.26,3.64-.98,1.36-1.82,2.77-2.53,4.24-.71,1.47-1.25,2.94-1.63,4.4-.38,1.47-.57,2.82-.57,4.05,0,.98.16,1.8.46,2.47.31.67.71,1.2,1.22,1.6.51.4,1.07.69,1.68.87.62.18,1.23.27,1.85.27,1.23,0,2.42-.22,3.56-.65,1.14-.43,2.2-1,3.18-1.68.98-.69,1.85-1.45,2.61-2.28.76-.83,1.41-1.65,1.96-2.44l-1.47-1.09c-1.38,1.88-2.82,3.33-4.32,4.35-1.5,1.01-2.89,1.52-4.16,1.52-.73,0-1.28-.25-1.66-.76-.38-.51-.57-1.19-.57-2.06,0-.94.06-1.81.19-2.61.13-.8.26-1.45.41-1.96ZM270.9,336.96c.79-1.45,1.61-2.71,2.44-3.78.83-1.07,1.67-1.92,2.5-2.55.83-.63,1.63-.95,2.39-.95.58,0,1.04.14,1.39.41s.52.72.52,1.33c0,1.01-.3,2.03-.9,3.04-.6,1.01-1.41,1.97-2.45,2.88-1.03.91-2.25,1.72-3.64,2.45-1.39.72-2.89,1.32-4.48,1.79.69-1.63,1.43-3.17,2.23-4.62ZM222.32,350.87l-3.8-.33c-.76-.07-1.28-.24-1.55-.52-.27-.27-.41-.61-.41-1.01s.09-.87.27-1.41c.18-.54.47-1.45.87-2.72l8.8-26.52h7.17c.33,0,.56.07.71.22.15.14.25.36.33.65l.98,5.76h1.63l2.72-8.96h-30.43l-3.1,8.96h1.85l4.94-6.03c.4-.4.82-.6,1.25-.6h7.12l-10,29.83c-.51,1.52-1.39,2.34-2.66,2.45l-3.26.22-.6,1.74h16.52l.65-1.74ZM382.76,494.74l-6.31-10.36h-2.93l7.85,12.88v8.55h2.77v-8.55l7.91-12.88h-2.94l-6.34,10.36ZM408.34,484.38l-8.76,21.43h2.86l2.09-5.13h10.3l2.12,5.13h2.91l-9.01-21.43h-2.51ZM405.53,498.23l4.11-10.13,4.18,10.13h-8.3ZM354.4,484.38l-8.76,21.43h2.86l2.09-5.13h10.3l2.12,5.13h2.91l-9.01-21.43h-2.51ZM351.59,498.23l4.11-10.13,4.18,10.13h-8.3ZM466.49,357.93v-169.91l-181.55,181.55h83.57l.57-11.64h-56.02l141.8-141.8v141.8h-63.24l-.57,11.64h63.81v50.5h11.64v-50.5h29.94v-11.64h-29.94ZM333.82,494.84c.86-1.1,1.29-2.4,1.29-3.89,0-1.9-.66-3.47-1.98-4.71-1.32-1.23-2.99-1.85-5-1.85h-8.12v21.44h2.68v-8.39h4.89l4.92,8.39h3.02l-5.13-8.7c1.44-.42,2.58-1.18,3.44-2.28ZM322.69,494.89v-7.95h5.31c1.3,0,2.35.37,3.16,1.12.81.75,1.22,1.7,1.22,2.85s-.4,2.12-1.21,2.86c-.81.74-1.87,1.11-3.17,1.11h-5.31ZM278.09,504.2c-.3-.29-.44-.71-.44-1.26v-4.1h2.55v-1.16h-2.55v-1.72h-.2l-2.52,2.65v.23h1.44v4.13c0,.88.25,1.58.75,2.08.5.51,1.19.76,2.07.76h1.05v-1.18h-.88c-.56,0-.98-.15-1.27-.44ZM384.27,336.15c-2.3-10.89-6.34-21.12-11.88-30.41l-8.82,8c4.29,7.65,7.44,15.99,9.31,24.81,4.83,22.89.46,46.29-12.31,65.89-12.77,19.6-32.41,33.06-55.3,37.89-47.25,9.98-93.81-20.36-103.78-67.61l-11.39,2.41c9.85,46.66,51.17,78.75,97.06,78.74,6.77,0,13.64-.7,20.51-2.15,53.53-11.3,87.89-64.04,76.6-117.58ZM296.46,484.38l-8.76,21.43h2.86l2.09-5.13h10.3l2.12,5.13h2.91l-9.01-21.43h-2.51ZM293.65,498.23l4.11-10.13,4.18,10.13h-8.3Z"/>
</svg>