<?xml version="1.0" encoding="UTF-8"?>
<svg id="Layer_1" data-name="Layer 1" xmlns="http://www.w3.org/2000/svg" viewBox="0 0 686.52 686.52">
  <defs>
    <style>
      .cls-1 {
        fill: #b39759;
      }

      .cls-2 {
        fill: #fff;
      }

      .cls-3 {
        fill: #123884;
      }
    </style>
  </defs>
  <rect class="cls-3" width="686.52" height="686.52"/>
  <g>
    <g>
      <path class="cls-1" d="M279.76,279.46c-1.32.47-11.77,8.75-16.5,11.4,0,0-35.88-24.67-73.15-40.81-.04.05-.08.12-.08.12,0,0,49.81,29.96,51.46,57.11,1.49,24.63-29.98,50.97-46.57,64.28-10.09,8.09-20.62,15.74-31.46,22.79l.27.37c30.29-18.82,62.82-38,89-62.65,9.34-8.79,18.5-17.73,23.12-29.97,1.81-4.8,4.32-14.78,4.32-14.78l10.22-1.27s-6.13-3.85-10.65-6.59Z"/>
      <path class="cls-2" d="M135.6,312.11c0-12.34,9.7-21.18,23.25-21.18,7.58,0,15.1,3.61,16.82,8.21l-4.82,1.67c-1.95-4.94-5.86-7.52-11.43-7.52-8.73,0-15.62,8.27-15.62,18.72s6.83,18.89,15.56,18.89c3.9,0,7.58-1.38,9.53-3.62v-12.34h7.92v4.59c0,8.04-7.58,13.78-18.03,13.78-13.55,0-23.19-8.78-23.19-21.18Z"/>
      <path class="cls-2" d="M183.96,291.39h15.27c14.98,0,24,7.52,24,19.69,0,13.72-8.78,21.64-23.94,21.64h-15.33v-41.34ZM199.29,330.2c10.39,0,15.73-6.37,15.73-18.95,0-11.42-5.4-17.39-15.79-17.39h-7.35v36.34h7.41Z"/>
      <path class="cls-2" d="M290.4,312.11c0-12.34,9.7-21.18,23.25-21.18,7.58,0,15.1,3.61,16.82,8.21l-4.82,1.67c-1.95-4.94-5.86-7.52-11.43-7.52-8.73,0-15.62,8.27-15.62,18.72s6.83,18.89,15.56,18.89c3.9,0,7.58-1.38,9.53-3.62v-12.34h7.92v4.59c0,8.04-7.58,13.78-18.03,13.78-13.55,0-23.19-8.78-23.19-21.18Z"/>
      <path class="cls-2" d="M337.04,312.11c0-12.29,10.16-21.3,23.77-21.3s23.77,9.01,23.77,21.3-10.1,21.18-23.83,21.18-23.71-8.9-23.71-21.18ZM376.37,312.11c0-10.74-6.6-18.6-15.56-18.6s-15.56,7.87-15.56,18.6,6.49,18.49,15.56,18.49,15.56-7.58,15.56-18.49Z"/>
      <path class="cls-2" d="M391.15,291.39h31.06v2.7h-23.14v15.96h17.8v2.7h-17.8v17.28h23.14v2.7h-31.06v-41.34Z"/>
      <path class="cls-2" d="M429.35,291.39h7.35l24.92,31.06v-31.06h3.27v41.34h-4.13l-28.13-34.91v34.91h-3.27v-41.34Z"/>
      <path class="cls-2" d="M474.32,291.39h7.92v18.14l21.33-18.14h4.65l-22.99,19.52,24.17,21.81h-10.16l-16.99-15.27v15.27h-7.92v-41.34Z"/>
      <path class="cls-2" d="M527.73,291.39h6.37l16.82,41.34h-8.21l-5.46-13.38h-17.28l-5.4,13.38h-3.44l16.59-41.34ZM536.17,316.64l-7.64-18.72-7.52,18.72h15.16Z"/>
    </g>
    <g>
      <path class="cls-2" d="M251.63,418.42h-6.3v-2.79h15.66v2.79h-6.3v17.64h-3.06v-17.64Z"/>
      <path class="cls-2" d="M262.88,414.34h2.91v6.06c0,1.17-.03,2.16-.09,3.27l.18.03c1.05-1.95,2.73-2.91,4.71-2.91,3.63,0,5.31,2.46,5.31,6v9.27h-2.91v-8.55c0-2.43-1.08-4.08-3.51-4.08s-3.69,1.89-3.69,4.17v8.46h-2.91v-21.72Z"/>
      <path class="cls-2" d="M279.47,421.15h2.85c0,.93,0,1.65-.03,2.55l.18.03c.84-1.83,2.43-2.73,4.32-2.73.3,0,.54.03.87.09l-.03,2.64h-1.23c-2.61,0-4.02,1.71-4.02,4.23v8.1h-2.91v-14.91Z"/>
      <path class="cls-2" d="M289.19,417.25c0-1.11.81-1.86,1.95-1.86s1.95.75,1.95,1.86-.81,1.83-1.95,1.83-1.95-.75-1.95-1.83ZM289.7,421.15h2.91v14.91h-2.91v-14.91Z"/>
      <path class="cls-2" d="M294.8,421.21v-.06h3.12l4.38,11.52,4.41-11.52h3.09v.06l-6.15,14.97h-2.7l-6.15-14.97Z"/>
      <path class="cls-2" d="M310.34,428.59c0-4.56,2.97-7.92,7.32-7.92s6.9,3.06,6.9,7.59c0,.39-.03.69-.06,1.08h-11.31c.27,2.64,1.95,4.56,4.53,4.56,1.86,0,3.24-.93,4.08-2.64l2.46,1.2c-1.32,2.67-3.63,4.02-6.6,4.02-4.38,0-7.32-3.3-7.32-7.89ZM321.74,427.09c-.33-2.31-1.68-3.84-4.08-3.84s-3.87,1.59-4.35,3.84h8.43Z"/>
      <path class="cls-2" d="M326.48,434.29c0-1.2.9-2.04,2.1-2.04s2.1.84,2.1,2.04-.84,2.07-2.1,2.07-2.1-.84-2.1-2.07Z"/>
      <path class="cls-2" d="M340.4,415.63h12.69v2.79h-9.63v6.24h9.15v2.76h-9.15v8.64h-3.06v-20.43Z"/>
      <path class="cls-2" d="M354.2,428.59c0-4.56,3-7.89,7.5-7.89s7.5,3.33,7.5,7.86-3,7.92-7.5,7.92-7.5-3.36-7.5-7.89ZM366.29,428.56c0-2.94-1.74-5.25-4.59-5.25s-4.59,2.31-4.59,5.28,1.77,5.28,4.59,5.28,4.59-2.37,4.59-5.31Z"/>
      <path class="cls-2" d="M372.11,421.15h2.85c0,.93,0,1.65-.03,2.55l.18.03c.84-1.83,2.43-2.73,4.32-2.73.3,0,.54.03.87.09l-.03,2.64h-1.23c-2.61,0-4.02,1.71-4.02,4.23v8.1h-2.91v-14.91Z"/>
      <path class="cls-2" d="M388.97,415.63h3.06v17.64h9.15v2.79h-12.21v-20.43Z"/>
      <path class="cls-2" d="M403.22,417.25c0-1.11.81-1.86,1.95-1.86s1.95.75,1.95,1.86-.81,1.83-1.95,1.83-1.95-.75-1.95-1.83ZM403.73,421.15h2.91v14.91h-2.91v-14.91Z"/>
      <path class="cls-2" d="M411.83,423.73h-2.4v-2.58h2.4v-1.29c0-3.75,2.13-5.88,5.43-5.88.78,0,1.44.09,2.13.3l-.15,2.49c-.57-.15-1.11-.21-1.65-.21-1.8,0-2.85,1.14-2.85,3.27v1.32h4.5v2.58h-4.5v12.33h-2.91v-12.33Z"/>
      <path class="cls-2" d="M419.87,428.59c0-4.56,2.97-7.92,7.32-7.92s6.9,3.06,6.9,7.59c0,.39-.03.69-.06,1.08h-11.31c.27,2.64,1.95,4.56,4.53,4.56,1.86,0,3.24-.93,4.08-2.64l2.46,1.2c-1.32,2.67-3.63,4.02-6.6,4.02-4.38,0-7.32-3.3-7.32-7.89ZM431.27,427.09c-.33-2.31-1.68-3.84-4.08-3.84s-3.87,1.59-4.35,3.84h8.43Z"/>
      <path class="cls-2" d="M436.01,434.29c0-1.2.9-2.04,2.1-2.04s2.1.84,2.1,2.04-.84,2.07-2.1,2.07-2.1-.84-2.1-2.07Z"/>
    </g>
  </g>
</svg>