<?xml version="1.0" encoding="UTF-8"?>
<svg id="Layer_1" xmlns="http://www.w3.org/2000/svg" version="1.1" viewBox="0 0 246.18 40.56">
  <!-- Generator: Adobe Illustrator 30.0.0, SVG Export Plug-In . SVG Version: 2.1.1 Build 123)  -->
  <g transform="scale(0.65)">
    <path d="M13.58,33.24c-7.87,0-13.58-5.45-13.58-12.96S5.71,7.33,13.58,7.33s13.58,5.45,13.58,12.96-5.71,12.96-13.58,12.96ZM13.58,9.46c-6.74,0-11.45,4.45-11.45,10.83s4.82,10.83,11.45,10.83,11.45-4.55,11.45-10.83-4.82-10.83-11.45-10.83ZM13.58,26.33c-3.4,0-5.88-2.54-5.88-6.05s2.47-6.05,5.88-6.05,5.88,2.54,5.88,6.05-2.47,6.05-5.88,6.05ZM13.58,16.37c-2.24,0-3.75,1.57-3.75,3.92s1.51,3.92,3.75,3.92,3.75-1.57,3.75-3.92-1.51-3.92-3.75-3.92Z"/>
    <path d="M37.82,33.27c-7.41,0-12.79-5.46-12.79-12.98s5.38-12.96,12.79-12.96c1.56,0,3.08.3,4.48.88V0h9.73v32.51h-7.45l-.47-1.07c-1.85,1.2-4,1.83-6.29,1.83ZM37.82,9.46c-6.28,0-10.66,4.45-10.66,10.83s4.38,10.85,10.66,10.85c2.27,0,4.36-.75,6.05-2.16l1.09-.92,1.02,2.32h3.93V2.13h-5.47v9.73l-1.63-1.01c-1.48-.92-3.16-1.39-4.98-1.39ZM38.85,26.46c-3.45,0-6.06-2.65-6.06-6.17s2.61-6.17,6.06-6.17,6.06,2.65,6.06,6.17-2.61,6.17-6.06,6.17ZM38.85,16.24c-2.28,0-3.93,1.7-3.93,4.04s1.65,4.04,3.93,4.04,3.93-1.7,3.93-4.04-1.65-4.04-3.93-4.04Z"/>
    <path d="M62.7,33.27c-7.41,0-12.79-5.46-12.79-12.98s5.38-12.96,12.79-12.96c1.56,0,3.08.3,4.48.88V0h9.73v32.51h-7.45l-.47-1.07c-1.84,1.2-3.99,1.83-6.29,1.83ZM62.7,9.46c-6.28,0-10.66,4.45-10.66,10.83s4.38,10.85,10.66,10.85c2.28,0,4.37-.75,6.05-2.16l1.09-.92,1.02,2.33h3.93V2.13h-5.47v9.73l-1.63-1.01c-1.48-.92-3.16-1.39-4.98-1.39ZM63.72,26.46c-3.45,0-6.06-2.65-6.06-6.17s2.61-6.17,6.06-6.17,6.06,2.65,6.06,6.17-2.61,6.17-6.06,6.17ZM63.72,16.24c-2.28,0-3.93,1.7-3.93,4.04s1.65,4.04,3.93,4.04,3.93-1.7,3.93-4.04-1.65-4.04-3.93-4.04Z"/>
    <path d="M104.9,21.34c0,6.96-4.88,11.92-11.7,11.92-2.02,0-3.87-.53-5.44-1.48v8.79h-7.6V10.18h5.23l.96,1.77c1.84-1.59,4.2-2.5,6.85-2.5,6.82,0,11.7,4.94,11.7,11.89ZM97.16,21.34c0-2.93-2.12-5.11-5-5.11s-5,2.18-5,5.11,2.12,5.11,5,5.11,5-2.18,5-5.11Z"/>
    <path d="M132.17,10.16v22.32h-5.94l-.66-1.58c-1.83,1.48-4.14,2.34-6.73,2.34-6.83,0-11.7-4.98-11.7-11.92s4.88-11.83,11.7-11.83c2.63,0,4.98.88,6.82,2.4l.79-1.73h5.73ZM124.86,21.33c0-2.9-2.12-5.07-5-5.07s-5,2.18-5,5.07,2.12,5.09,5,5.09,5-2.18,5-5.09Z"/>
    <path d="M151.55,10.07v7.04h-2.99c-2.72,0-3.86,1.19-3.86,4.04v11.35h-7.69V10.18h5.15l1.2,2.48c1.57-1.82,3.49-2.58,6.15-2.58h2.04Z"/>
    <path d="M169.88,25.77v6.73h-5.29c-4.94,0-7.94-3.02-7.94-7.98v-8.42h-4.09v-1.8l10-10.65h1.58v6.53h5.61v5.92h-5.41v7.1c0,1.6.96,2.56,2.59,2.56h2.95Z"/>
    <path d="M173.46,10.18h7.69v22.32h-7.69V10.18ZM173.52.86h7.57v6.52h-7.57V.86Z"/>
    <path d="M199.6,32.5l-5.59-9.44v9.44h-7.69V2.12h7.69v16.8l5.32-8.74h8.63l-6.96,10.64,7.66,11.68h-9.06Z"/>
    <path d="M210.65,2.12h7.69v30.38h-7.69V2.12Z"/>
    <path d="M246.18,21.13c0,.67-.06,1.35-.16,2.03h-16.57c.5,2.56,2.13,3.88,4.56,3.88,1.8,0,3.3-.78,4.04-2.09h7.65c-1.57,5.09-6.09,8.28-11.69,8.28-6.96,0-12.12-5.09-12.12-11.91s5.12-11.87,12.12-11.87,12.18,5.13,12.18,11.68h0ZM229.58,18.91h9.02c-.67-2.23-2.28-3.43-4.6-3.43s-3.8,1.22-4.42,3.43Z"/>
  </g>
  <path d="M240.98,2.63c0-1.54,1.08-2.63,2.6-2.63s2.6,1.09,2.6,2.63-1.07,2.63-2.6,2.63-2.6-1.09-2.6-2.63ZM245.6,2.63c0-1.22-.81-2.11-2.03-2.11s-2.02.9-2.02,2.11.8,2.11,2.02,2.11,2.03-.9,2.03-2.11ZM242.68,1.3h1.08c.57,0,.86.32.86.79,0,.41-.27.72-.67.75l.83,1.08h0s-.7.01-.7.01l-.82-1.13h0v1.13h-.56V1.3ZM243.68,2.45c.24,0,.37-.15.37-.34s-.14-.32-.37-.32h-.44v.67h.44Z" transform="scale(0.65)"/>
</svg>