<?xml version="1.0" encoding="UTF-8"?>
<svg id="Layer_1" xmlns="http://www.w3.org/2000/svg" version="1.1" viewBox="0 0 1885.51 545.51">
  <!-- Generator: Adobe Illustrator 29.8.2, SVG Export Plug-In . SVG Version: 2.1.1 Build 3)  -->
  <defs>
    <style>
      .st0 {
        fill: #fff;
      }
    </style>
  </defs>
  <path class="st0" d="M146.35,535.21L0,0h65.86l111.85,435.9h5.23L296.87,0h73.17l113.94,435.9h5.23L601.06,0h65.86l-146.35,535.21h-66.9l-118.12-426.49h-4.18l-118.12,426.49h-66.9Z"/>
  <path class="st0" d="M673.02,200.37c26-56.91,62.43-103.88,109.28-140.93,46.85-37.04,99.72-55.56,158.59-55.56,54.94,0,97.62,15.45,128.05,46.36,30.41,30.91,45.63,74.58,45.63,130.99s-13.13,111.49-39.37,168.16c-26.25,56.67-62.92,103.52-110.02,140.56-47.1,37.05-99.84,55.56-158.22,55.56-54.46,0-96.9-15.45-127.31-46.36-30.43-30.91-45.63-74.33-45.63-130.26s12.99-111.61,39-168.52ZM827.2,70.11c-34.59,35.32-62.44,81.08-83.53,137.25-21.1,56.18-31.64,113.22-31.64,171.1,0,47.59,9.31,85.12,27.96,112.59,18.64,27.48,43.17,41.21,73.59,41.21,36.8,0,72.49-17.66,107.08-52.99,34.59-35.32,62.43-81.07,83.53-137.25,21.09-56.17,31.64-113.2,31.64-171.1,0-47.58-9.33-85.11-27.96-112.59-18.65-27.47-43.18-41.21-73.59-41.21-36.8,0-72.49,17.66-107.08,52.99Z"/>
  <path class="st0" d="M1107.25,535.21V0h180.84c41.81,0,76.13,7.1,102.96,21.3,26.83,14.2,46.69,33.67,59.58,58.41,12.89,24.74,19.34,52.88,19.34,84.41s-6.45,59.5-19.34,83.89c-12.89,24.39-32.67,43.51-59.32,57.36-26.66,13.85-60.72,20.78-102.18,20.78h-146.35v-58.54h144.26c28.57,0,51.61-4.18,69.12-12.54,17.51-8.36,30.23-20.25,38.16-35.67,7.93-15.42,11.89-33.84,11.89-55.27s-4.01-40.16-12.02-56.19c-8.02-16.03-20.82-28.44-38.42-37.24-17.6-8.8-40.86-13.2-69.78-13.2h-113.94v477.71h-64.81ZM1359.18,294.78l131.71,240.43h-75.26l-129.62-240.43h73.17Z"/>
  <path class="st0" d="M1489.33,535.21V0h64.81v265.51h6.27L1800.84,0h84.67l-224.75,241.47,224.75,293.74h-78.4l-186.07-248.79-66.9,75.26v173.52h-64.81Z"/>
</svg>